<?xml version="1.0" standalone="no"?><!DOCTYPE svg PUBLIC "-//W3C//DTD SVG 1.1//EN" "http://www.w3.org/Graphics/SVG/1.1/DTD/svg11.dtd"><svg t="1680440994224" class="icon" viewBox="0 0 1024 1024" version="1.1" xmlns="http://www.w3.org/2000/svg" p-id="1673" xmlns:xlink="http://www.w3.org/1999/xlink" width="400" height="400"><path d="M724.90758 608.311429a93.482982 93.482982 0 0 1-7.966653 6.22537c-1.240522 0.933236-2.515186 1.820949-3.767089 2.731424-181.138927 128.012732-199.576038 277.467142-201.146606 317.197978L511.993089 933.305346c-10.868791-161.404389-141.03252-272.004295-188.024391-306.852711a341.427985 341.427985 0 1 1 400.938882-18.141206zM511.993089 944.686279s-0.182095-3.676041 0.079666-10.242839C525.206352 1129.728866 511.993089 944.686279 511.993089 944.686279z" fill="#EE6B02" p-id="1674"></path><path d="M511.993089 0.068855a341.359699 341.359699 0 0 1 212.914491 608.242574 93.482982 93.482982 0 0 1-7.966653 6.22537c-1.240522 0.933236-2.515186 1.820949-3.767089 2.731424a629.718394 629.718394 0 0 0-33.994846 25.811955L273.949498 96.806784A340.198844 340.198844 0 0 1 511.993089 0.068855z" fill="#FFFFFF" opacity=".2" p-id="1675"></path><path d="M511.993089 506.122033a196.138996 196.138996 0 1 1 193.475858-196.127616 194.807427 194.807427 0 0 1-193.475858 196.127616z m0-319.986308a123.881454 123.881454 0 1 0 122.197075 123.858692A123.039265 123.039265 0 0 0 511.993089 186.135725z m0 196.116235a72.257543 72.257543 0 1 1 71.278782-72.257543A71.768162 71.768162 0 0 1 511.993089 382.25196z m-132.383011 92.902555c0.409714 0 0.796665 0.102428 1.194998 0.12519l3.027328-4.916563a200.81656 200.81656 0 0 0 250.881283 4.097136l1.627474 2.367234a20.041823 20.041823 0 0 1 7.966653-1.672997 20.610869 20.610869 0 0 1 2.355853 41.051024 239.727969 239.727969 0 0 1-269.728108 0 20.610869 20.610869 0 0 1 2.674519-41.051024z" fill="#FFFFFF" p-id="1676"></path></svg>